<svg width="107" height="71" viewBox="0 0 107 71" fill="none" xmlns="http://www.w3.org/2000/svg">
<path d="M14.0869 62.6177C14.5127 63.1606 15.1416 63.4321 15.9737 63.4321C16.8057 63.4321 17.4326 63.1626 17.8545 62.6235C18.2803 62.0806 18.4932 61.3149 18.4932 60.3267C18.4932 59.3267 18.2803 58.5513 17.8545 58.0005C17.4326 57.4497 16.8076 57.1743 15.9795 57.1743C15.1475 57.1743 14.5166 57.4517 14.0869 58.0063C13.6612 58.5571 13.4483 59.3306 13.4483 60.3267C13.4483 61.311 13.6612 62.0747 14.0869 62.6177ZM15.9678 64.7271C14.6748 64.7271 13.6533 64.3364 12.9033 63.5552C12.1572 62.77 11.7842 61.688 11.7842 60.3091C11.7842 58.9224 12.1592 57.8403 12.9092 57.063C13.6592 56.2856 14.6807 55.897 15.9737 55.897C17.2666 55.897 18.2862 56.2876 19.0322 57.0688C19.7783 57.8462 20.1514 58.9282 20.1514 60.3149C20.1514 61.686 19.7764 62.7642 19.0264 63.5493C18.2764 64.3345 17.2569 64.7271 15.9678 64.7271ZM21.5108 67.2817V58.1646H22.8291L22.9932 59.0669C23.2041 58.7271 23.4834 58.4653 23.8311 58.2817C24.1826 58.0942 24.5733 58.0005 25.0029 58.0005C25.5303 58.0005 25.9932 58.147 26.3916 58.4399C26.794 58.7329 27.0987 59.1333 27.3057 59.6411C27.5127 60.145 27.6162 60.7153 27.6162 61.3521C27.6162 62.3481 27.374 63.1606 26.8897 63.7896C26.4092 64.4146 25.7569 64.7271 24.9326 64.7271C24.5264 64.7271 24.1572 64.647 23.8252 64.4868C23.4971 64.3228 23.2217 64.1021 22.999 63.8247C23.0303 64.3872 23.0459 64.7036 23.0459 64.7739V67.2056L21.5108 67.2817ZM24.6045 63.5552C25.0615 63.5552 25.4209 63.3638 25.6826 62.981C25.9483 62.5981 26.0811 62.0513 26.0811 61.3403C26.0811 60.6177 25.9483 60.0747 25.6826 59.7114C25.417 59.3481 25.0479 59.1665 24.5752 59.1665C23.5596 59.1665 23.0459 59.8579 23.0342 61.2407C23.0342 62.0376 23.1651 62.6235 23.4268 62.9985C23.6924 63.3696 24.085 63.5552 24.6045 63.5552ZM31.4424 64.6919C31.0049 64.6919 30.6397 64.6411 30.3467 64.5396C30.0576 64.4341 29.8311 64.27 29.667 64.0474C29.5029 63.8247 29.3858 63.563 29.3154 63.2622C29.249 62.9575 29.2158 62.5825 29.2158 62.1372V59.0962H28.1612L28.2197 58.2642L29.3213 58.1646L29.8135 56.4185L30.751 56.4126V58.1646H32.3506V59.0962H30.751V62.1665C30.751 62.6548 30.8213 63.0024 30.9619 63.2095C31.1026 63.4165 31.3623 63.52 31.7412 63.52C31.9639 63.52 32.2022 63.5005 32.4561 63.4614L32.4971 64.563C32.4893 64.563 32.4404 64.5728 32.3506 64.5923C32.2647 64.6079 32.1807 64.6216 32.0987 64.6333C32.0205 64.6489 31.919 64.6626 31.794 64.6743C31.669 64.686 31.5518 64.6919 31.4424 64.6919ZM33.6162 64.604V58.1646H35.1514V64.604H33.6162ZM33.6162 57.2271V55.9146H35.1572V57.2271H33.6162ZM39.5752 64.7271C38.5908 64.7271 37.8233 64.4341 37.2725 63.8481C36.7256 63.2622 36.4522 62.4243 36.4522 61.3345C36.4522 60.2798 36.7393 59.4614 37.3135 58.8794C37.8916 58.2974 38.6514 58.0063 39.5928 58.0063C40.3467 58.0063 40.9834 58.1685 41.5029 58.4927L41.1397 59.5884C40.6084 59.311 40.1143 59.1724 39.6572 59.1724C39.1377 59.1724 38.7276 59.3579 38.4268 59.729C38.1299 60.1001 37.9815 60.6411 37.9815 61.3521C37.9815 62.0708 38.1279 62.6177 38.4209 62.9927C38.7178 63.3677 39.1358 63.5552 39.6748 63.5552C40.2373 63.5552 40.7783 63.3892 41.2979 63.0571L41.4444 64.2231C41.1748 64.4028 40.8955 64.5317 40.6065 64.6099C40.3174 64.688 39.9737 64.7271 39.5752 64.7271ZM44.3623 64.7271C43.7647 64.7271 43.2803 64.563 42.9092 64.2349C42.542 63.9028 42.3584 63.4263 42.3584 62.8052C42.3584 62.1372 42.5772 61.6431 43.0147 61.3228C43.4522 60.9985 44.1123 60.7935 44.9951 60.7075C45.1162 60.6919 45.2471 60.6763 45.3877 60.6606C45.5283 60.645 45.6865 60.6294 45.8623 60.6138C46.0381 60.5981 46.1768 60.5845 46.2783 60.5728V60.2329C46.2783 59.8423 46.1885 59.5591 46.0088 59.3833C45.8291 59.2036 45.5557 59.1138 45.1885 59.1138C44.6651 59.1138 44.0186 59.2603 43.249 59.5532C43.2451 59.5415 43.1807 59.3638 43.0557 59.02C42.9307 58.6763 42.8662 58.5005 42.8623 58.4927C43.6201 58.1685 44.4404 58.0063 45.3233 58.0063C46.1904 58.0063 46.8213 58.1958 47.2158 58.5747C47.6104 58.9497 47.8076 59.5591 47.8076 60.4028V64.604H46.6709C46.667 64.5884 46.624 64.4575 46.542 64.2114C46.46 63.9653 46.419 63.8345 46.419 63.8188C46.0987 64.1313 45.7842 64.3618 45.4756 64.5103C45.1709 64.6548 44.7998 64.7271 44.3623 64.7271ZM44.7783 63.6372C45.1338 63.6372 45.4424 63.5532 45.7041 63.3853C45.9697 63.2134 46.1592 63.0063 46.2725 62.7642V61.522C46.2608 61.522 46.1572 61.5298 45.9619 61.5454C45.7705 61.561 45.667 61.5688 45.6514 61.5688C45.0303 61.6235 44.5752 61.7407 44.2862 61.9204C43.9971 62.1001 43.8526 62.3892 43.8526 62.7876C43.8526 63.061 43.9326 63.272 44.0928 63.4204C44.2529 63.5649 44.4815 63.6372 44.7783 63.6372ZM51.6104 64.6919C51.169 64.6919 50.8018 64.6411 50.5088 64.5396C50.2197 64.4341 49.9912 64.2681 49.8233 64.0415C49.6553 63.8149 49.5381 63.5454 49.4717 63.2329C49.4053 62.9204 49.3721 62.5317 49.3721 62.0669V55.7915L50.9072 55.6919V62.0376C50.9072 62.6157 50.9756 63.0083 51.1123 63.2153C51.249 63.4185 51.5147 63.52 51.9092 63.52C52.1045 63.52 52.3526 63.4985 52.6533 63.4556L52.6944 64.5513C52.6904 64.5513 52.6416 64.561 52.5479 64.5806C52.458 64.6001 52.3701 64.6157 52.2842 64.6274C52.2022 64.6431 52.0967 64.6567 51.9678 64.6685C51.8389 64.6841 51.7197 64.6919 51.6104 64.6919ZM56.7373 64.604V55.9966H59.919C60.3526 55.9966 60.7276 56.0161 61.044 56.0552C61.3643 56.0942 61.667 56.1665 61.9522 56.272C62.2412 56.3735 62.4737 56.5122 62.6494 56.688C62.8291 56.8638 62.9697 57.0942 63.0713 57.3794C63.1768 57.6606 63.2295 57.9946 63.2295 58.3813C63.2295 59.522 62.7119 60.272 61.6768 60.6313C61.8877 60.8696 62.1494 61.311 62.4619 61.9556L63.7393 64.604H62.0049L61.0029 62.3599C60.624 61.5552 60.3897 61.0786 60.2998 60.9302C60.2334 60.9263 60.0127 60.9243 59.6377 60.9243L58.3076 60.9126V64.604H56.7373ZM60.0596 59.7759C60.669 59.7759 61.1065 59.6685 61.3721 59.4536C61.6377 59.2349 61.7705 58.8853 61.7705 58.4048C61.7705 57.9829 61.6358 57.6724 61.3662 57.4731C61.0967 57.2739 60.6846 57.1743 60.1299 57.1743H58.3076V59.77C58.3662 59.77 58.6572 59.772 59.1807 59.7759C59.7041 59.7759 59.9971 59.7759 60.0596 59.7759ZM67.7764 64.7271C66.7412 64.7271 65.9346 64.4302 65.3565 63.8364C64.7822 63.2388 64.4951 62.4146 64.4951 61.3638C64.4951 60.3403 64.7666 59.5259 65.3096 58.9204C65.8526 58.3149 66.5928 58.0103 67.5303 58.0063C68.417 58.0063 69.1045 58.2837 69.5928 58.8384C70.085 59.3931 70.3311 60.1294 70.3311 61.0474C70.3311 61.1138 70.3291 61.2212 70.3252 61.3696C70.3252 61.5181 70.3252 61.6274 70.3252 61.6978H66.042C66.0576 62.2993 66.2217 62.7661 66.5342 63.0981C66.8506 63.4263 67.2842 63.5903 67.835 63.5903C68.5381 63.5903 69.2139 63.4067 69.8623 63.0396L70.0791 64.1294C69.4346 64.5278 68.667 64.7271 67.7764 64.7271ZM66.0713 60.731H68.8838C68.8838 60.2075 68.7647 59.8052 68.5264 59.5239C68.2881 59.2427 67.958 59.1021 67.5362 59.1021C67.1416 59.1021 66.8076 59.2388 66.5342 59.5122C66.2647 59.7856 66.1104 60.1919 66.0713 60.731ZM73.2608 64.7271C72.6631 64.7271 72.1787 64.563 71.8076 64.2349C71.4404 63.9028 71.2569 63.4263 71.2569 62.8052C71.2569 62.1372 71.4756 61.6431 71.9131 61.3228C72.3506 60.9985 73.0108 60.7935 73.8936 60.7075C74.0147 60.6919 74.1455 60.6763 74.2861 60.6606C74.4268 60.645 74.585 60.6294 74.7608 60.6138C74.9365 60.5981 75.0752 60.5845 75.1768 60.5728V60.2329C75.1768 59.8423 75.0869 59.5591 74.9072 59.3833C74.7276 59.2036 74.4541 59.1138 74.0869 59.1138C73.5635 59.1138 72.917 59.2603 72.1475 59.5532C72.1436 59.5415 72.0791 59.3638 71.9541 59.02C71.8291 58.6763 71.7647 58.5005 71.7608 58.4927C72.5186 58.1685 73.3389 58.0063 74.2217 58.0063C75.0889 58.0063 75.7197 58.1958 76.1143 58.5747C76.5088 58.9497 76.7061 59.5591 76.7061 60.4028V64.604H75.5694C75.5654 64.5884 75.5225 64.4575 75.4404 64.2114C75.3584 63.9653 75.3174 63.8345 75.3174 63.8188C74.9971 64.1313 74.6826 64.3618 74.374 64.5103C74.0694 64.6548 73.6983 64.7271 73.2608 64.7271ZM73.6768 63.6372C74.0322 63.6372 74.3408 63.5532 74.6026 63.3853C74.8682 63.2134 75.0576 63.0063 75.1709 62.7642V61.522C75.1592 61.522 75.0557 61.5298 74.8604 61.5454C74.669 61.561 74.5654 61.5688 74.5498 61.5688C73.9287 61.6235 73.4736 61.7407 73.1846 61.9204C72.8955 62.1001 72.751 62.3892 72.751 62.7876C72.751 63.061 72.8311 63.272 72.9912 63.4204C73.1514 63.5649 73.3799 63.6372 73.6768 63.6372ZM80.5088 64.6919C80.0674 64.6919 79.7002 64.6411 79.4072 64.5396C79.1182 64.4341 78.8897 64.2681 78.7217 64.0415C78.5537 63.8149 78.4365 63.5454 78.3701 63.2329C78.3037 62.9204 78.2705 62.5317 78.2705 62.0669V55.7915L79.8057 55.6919V62.0376C79.8057 62.6157 79.874 63.0083 80.0108 63.2153C80.1475 63.4185 80.4131 63.52 80.8076 63.52C81.0029 63.52 81.251 63.4985 81.5518 63.4556L81.5928 64.5513C81.5889 64.5513 81.5401 64.561 81.4463 64.5806C81.3565 64.6001 81.2686 64.6157 81.1826 64.6274C81.1006 64.6431 80.9951 64.6567 80.8662 64.6685C80.7373 64.6841 80.6182 64.6919 80.5088 64.6919ZM82.3897 64.604V58.1646H83.9248V64.604H82.3897ZM82.3897 57.2271V55.9146H83.9307V57.2271H82.3897ZM88.1026 64.6919C87.6651 64.6919 87.2998 64.6411 87.0069 64.5396C86.7178 64.4341 86.4912 64.27 86.3272 64.0474C86.1631 63.8247 86.0459 63.563 85.9756 63.2622C85.9092 62.9575 85.876 62.5825 85.876 62.1372V59.0962H84.8213L84.8799 58.2642L85.9815 58.1646L86.4736 56.4185L87.4111 56.4126V58.1646H89.0108V59.0962H87.4111V62.1665C87.4111 62.6548 87.4815 63.0024 87.6221 63.2095C87.7627 63.4165 88.0225 63.52 88.4014 63.52C88.624 63.52 88.8623 63.5005 89.1162 63.4614L89.1572 64.563C89.1494 64.563 89.1006 64.5728 89.0108 64.5923C88.9248 64.6079 88.8408 64.6216 88.7588 64.6333C88.6807 64.6489 88.5791 64.6626 88.4541 64.6743C88.3291 64.686 88.2119 64.6919 88.1026 64.6919ZM90.5811 67.3169C90.3311 67.3169 90.0654 67.3013 89.7842 67.27L89.708 66.0806C89.8877 66.1001 90.1162 66.1099 90.3936 66.1099C90.749 66.1099 91.0342 66.0396 91.249 65.8989C91.4639 65.7583 91.6416 65.5083 91.7822 65.1489C91.7979 65.1099 91.876 64.8892 92.0166 64.4868L89.4268 58.1646H91.0674L92.7608 62.8345C92.8858 62.3696 93.1651 61.5063 93.5986 60.2446C94.0361 58.9829 94.2764 58.2896 94.3194 58.1646H95.96C94.1748 62.8833 93.2744 65.2622 93.2588 65.3013C92.9815 66.0239 92.6319 66.5396 92.21 66.8481C91.7881 67.1606 91.2451 67.3169 90.5811 67.3169Z" fill="#5EBFF0"/>
<g clip-path="url(#clip0_4_917)">
<path d="M78.8362 24.4324C78.8362 35.4111 71.3656 44.6883 61.112 47.691C67.8003 44.9322 72.4942 38.4701 72.4942 30.9383C72.4942 20.898 64.1515 12.7594 53.8595 12.7594C43.5674 12.7594 35.2184 20.898 35.2184 30.9383C35.2184 38.2825 39.6815 44.6069 46.1068 47.4783C36.2059 44.2754 29.0688 35.1671 29.0688 24.4324C29.0688 11.0265 40.2073 0.160461 53.9557 0.160461C67.6977 0.160461 78.8362 11.0265 78.8362 24.4324Z" fill="#5EBFF0"/>
<path d="M58.1045 15.8309C61.1825 17.3511 63.2987 20.4601 63.2987 24.0571C63.2987 24.1322 63.2987 24.201 63.2987 24.2761C63.2987 24.3511 63.2987 24.42 63.2987 24.495C63.2987 29.5809 59.0728 33.7096 53.8531 33.7096C48.6397 33.7096 44.4139 29.5871 44.4139 24.495C44.4139 24.42 44.4139 24.3511 44.4139 24.2761C44.4139 24.201 44.4139 24.1322 44.4139 24.0571C44.4139 20.4601 46.53 17.3448 49.608 15.8309C42.8043 17.6451 37.7962 23.7256 37.7962 30.9384C37.7962 39.5899 44.9846 46.6025 53.8531 46.6025C62.7215 46.6025 69.9099 39.5899 69.9099 30.9384C69.9099 23.7256 64.9082 17.6451 58.1045 15.8309Z" fill="#5EBFF0"/>
</g>
<defs>
<clipPath id="clip0_4_917">
<rect width="49.7674" height="47.5305" fill="white" transform="translate(29.0688 0.160461)"/>
</clipPath>
</defs>
</svg>
